<svg xmlns="http://www.w3.org/2000/svg" width="448" height="448" viewBox="0 0 448 448">
  <g id="globe-outline" transform="translate(-32 -32)">
    <path id="Path_1" data-name="Path 1" d="M256,48C141.13,48,48,141.13,48,256s93.13,208,208,208,208-93.13,208-208S370.87,48,256,48Z" fill="none" stroke="#283593" stroke-miterlimit="10" stroke-width="32"/>
    <path id="Path_2" data-name="Path 2" d="M256,48c-58.07,0-112.67,93.13-112.67,208S197.93,464,256,464s112.67-93.13,112.67-208S314.07,48,256,48Z" fill="none" stroke="#283593" stroke-miterlimit="10" stroke-width="32"/>
    <path id="Path_3" data-name="Path 3" d="M117.33,117.33c38.24,27.15,86.38,43.34,138.67,43.34s100.43-16.19,138.67-43.34m0,277.34c-38.24-27.15-86.38-43.34-138.67-43.34s-100.43,16.19-138.67,43.34" fill="none" stroke="#283593" stroke-linecap="round" stroke-linejoin="round" stroke-width="32"/>
    <path id="Path_4" data-name="Path 4" d="M256,48V464M464,256H48" fill="none" stroke="#283593" stroke-miterlimit="10" stroke-width="32"/>
  </g>
</svg>
